<svg width="191" height="29" viewBox="0 0 191 29" fill="none" xmlns="http://www.w3.org/2000/svg">
<path d="M12.384 22H9.336V20.536C8.544 21.424 7.152 22.288 5.256 22.288C2.712 22.288 1.512 20.896 1.512 18.64V10.408H4.56V17.44C4.56 19.048 5.4 19.576 6.696 19.576C7.872 19.576 8.808 18.928 9.336 18.256V10.408H12.384V22ZM22.0344 22.288C20.6664 22.288 19.3944 21.712 18.4584 20.512V26.416H15.4104V10.408H18.4584V11.872C19.3464 10.744 20.6184 10.12 22.0344 10.12C25.0104 10.12 27.1704 12.328 27.1704 16.192C27.1704 20.056 25.0104 22.288 22.0344 22.288ZM21.0744 19.576C22.8264 19.576 24.0024 18.208 24.0024 16.192C24.0024 14.2 22.8264 12.832 21.0744 12.832C20.0904 12.832 18.9624 13.408 18.4584 14.152V18.256C18.9624 18.976 20.0904 19.576 21.0744 19.576ZM42.8186 22H39.5786L37.1306 14.104L34.6826 22H31.4186L27.8906 10.408H31.0586L33.2186 18.208L35.7626 10.408H38.4746L41.0186 18.208L43.1786 10.408H46.3466L42.8186 22ZM53.2239 22.288C49.4079 22.288 47.1039 19.504 47.1039 16.192C47.1039 12.904 49.4079 10.12 53.2239 10.12C57.0639 10.12 59.3679 12.904 59.3679 16.192C59.3679 19.504 57.0639 22.288 53.2239 22.288ZM53.2239 19.576C55.1199 19.576 56.1999 18.016 56.1999 16.192C56.1999 14.392 55.1199 12.832 53.2239 12.832C51.3279 12.832 50.2719 14.392 50.2719 16.192C50.2719 18.016 51.3279 19.576 53.2239 19.576ZM64.6772 22H61.6292V10.408H64.6772V11.992C65.4932 10.96 66.9332 10.12 68.3732 10.12V13.096C68.1572 13.048 67.8692 13.024 67.5332 13.024C66.5252 13.024 65.1812 13.6 64.6772 14.344V22ZM81.6056 22H77.7896L74.7176 17.536L73.3256 19.024V22H70.2776V5.992H73.3256V15.568L77.7176 10.408H81.4616L76.8776 15.664L81.6056 22Z" fill="#14A801"/>
<path d="M94.256 22H91.184V13.072H89.264V10.408H91.184V9.784C91.184 7.312 92.768 5.752 95.096 5.752C96.2 5.752 97.376 6.04 98.12 6.832L96.968 8.632C96.656 8.32 96.248 8.152 95.696 8.152C94.856 8.152 94.256 8.704 94.256 9.784V10.408H96.608V13.072H94.256V22ZM101.412 22H98.3636V10.408H101.412V11.992C102.228 10.96 103.668 10.12 105.108 10.12V13.096C104.892 13.048 104.604 13.024 104.268 13.024C103.26 13.024 101.916 13.6 101.412 14.344V22ZM112.46 22.288C108.932 22.288 106.268 19.912 106.268 16.192C106.268 12.832 108.74 10.12 112.268 10.12C115.724 10.12 118.076 12.712 118.076 16.504V17.176H109.46C109.652 18.64 110.828 19.864 112.796 19.864C113.78 19.864 115.148 19.432 115.892 18.712L117.236 20.68C116.084 21.736 114.26 22.288 112.46 22.288ZM115.124 15.112C115.052 14.008 114.284 12.544 112.268 12.544C110.372 12.544 109.556 13.96 109.412 15.112H115.124ZM125.726 22.288C122.198 22.288 119.534 19.912 119.534 16.192C119.534 12.832 122.006 10.12 125.534 10.12C128.99 10.12 131.342 12.712 131.342 16.504V17.176H122.726C122.918 18.64 124.094 19.864 126.062 19.864C127.046 19.864 128.414 19.432 129.158 18.712L130.502 20.68C129.35 21.736 127.526 22.288 125.726 22.288ZM128.39 15.112C128.318 14.008 127.55 12.544 125.534 12.544C123.638 12.544 122.822 13.96 122.678 15.112H128.39ZM136.591 22H133.543V5.992H136.591V22ZM149.622 22H146.574V20.8C145.782 21.736 144.414 22.288 142.902 22.288C141.054 22.288 138.87 21.04 138.87 18.448C138.87 15.736 141.054 14.704 142.902 14.704C144.438 14.704 145.806 15.208 146.574 16.12V14.56C146.574 13.384 145.566 12.616 144.03 12.616C142.782 12.616 141.63 13.072 140.646 13.984L139.494 11.944C140.91 10.696 142.734 10.12 144.558 10.12C147.198 10.12 149.622 11.176 149.622 14.512V22ZM144.126 20.224C145.11 20.224 146.07 19.888 146.574 19.216V17.776C146.07 17.104 145.11 16.768 144.126 16.768C142.926 16.768 141.942 17.392 141.942 18.52C141.942 19.6 142.926 20.224 144.126 20.224ZM163.517 22H160.469V14.992C160.469 13.384 159.629 12.832 158.333 12.832C157.133 12.832 156.197 13.504 155.693 14.2V22H152.645V10.408H155.693V11.92C156.437 11.032 157.853 10.12 159.749 10.12C162.293 10.12 163.517 11.56 163.517 13.816V22ZM171.943 22.288C168.367 22.288 165.799 19.768 165.799 16.192C165.799 12.64 168.367 10.12 171.943 10.12C174.319 10.12 175.759 11.152 176.527 12.208L174.535 14.08C173.983 13.264 173.143 12.832 172.087 12.832C170.239 12.832 168.943 14.176 168.943 16.192C168.943 18.208 170.239 19.576 172.087 19.576C173.143 19.576 173.983 19.096 174.535 18.328L176.527 20.176C175.759 21.256 174.319 22.288 171.943 22.288ZM183.968 22.288C180.44 22.288 177.776 19.912 177.776 16.192C177.776 12.832 180.248 10.12 183.776 10.12C187.232 10.12 189.584 12.712 189.584 16.504V17.176H180.968C181.16 18.64 182.336 19.864 184.304 19.864C185.288 19.864 186.656 19.432 187.4 18.712L188.744 20.68C187.592 21.736 185.768 22.288 183.968 22.288ZM186.632 15.112C186.56 14.008 185.792 12.544 183.776 12.544C181.88 12.544 181.064 13.96 180.92 15.112H186.632Z" fill="#333333"/>
</svg>
