<svg width="268" height="30" viewBox="0 0 268 30" fill="none" xmlns="http://www.w3.org/2000/svg">
<path d="M15.784 23.589H11.3589V21.4636C10.2091 22.7528 8.18815 24.0072 5.43554 24.0072C1.74216 24.0072 0 21.9863 0 18.711V6.75978H4.42509V16.9688C4.42509 19.3033 5.6446 20.0699 7.52613 20.0699C9.23345 20.0699 10.5923 19.1291 11.3589 18.1535V6.75978H15.784V23.589Z" fill="#14A800"/>
<path d="M29.7945 24.0072C27.8084 24.0072 25.9617 23.1709 24.6028 21.4288V30.0002H20.1778V6.75978H24.6028V8.88522C25.892 7.24759 27.7387 6.34166 29.7945 6.34166C34.115 6.34166 37.2509 9.54724 37.2509 15.157C37.2509 20.7667 34.115 24.0072 29.7945 24.0072ZM28.4007 20.0699C30.9443 20.0699 32.6516 18.0838 32.6516 15.157C32.6516 12.265 30.9443 10.2789 28.4007 10.2789C26.9722 10.2789 25.3345 11.1152 24.6028 12.1953V18.1535C25.3345 19.1988 26.9722 20.0699 28.4007 20.0699Z" fill="#14A800"/>
<path d="M59.969 23.589H55.2651L51.7111 12.1256L48.1571 23.589H43.4184L38.2965 6.75978H42.8958L46.0317 18.0838L49.7251 6.75978H53.6623L57.3557 18.0838L60.4916 6.75978H65.0909L59.969 23.589Z" fill="#14A800"/>
<path d="M75.0754 24.0072C69.5353 24.0072 66.1904 19.9654 66.1904 15.157C66.1904 10.3835 69.5353 6.34166 75.0754 6.34166C80.6503 6.34166 83.9953 10.3835 83.9953 15.157C83.9953 19.9654 80.6503 24.0072 75.0754 24.0072ZM75.0754 20.0699C77.828 20.0699 79.396 17.8051 79.396 15.157C79.396 12.5438 77.828 10.2789 75.0754 10.2789C72.3228 10.2789 70.7897 12.5438 70.7897 15.157C70.7897 17.8051 72.3228 20.0699 75.0754 20.0699Z" fill="#14A800"/>
<path d="M91.7032 23.589H87.2781V6.75978H91.7032V9.05943C92.8879 7.56118 94.9785 6.34166 97.0691 6.34166V10.6622C96.7555 10.5925 96.3374 10.5577 95.8496 10.5577C94.3861 10.5577 92.4349 11.3939 91.7032 12.4741V23.589Z" fill="#14A800"/>
<path d="M116.28 23.589H110.74L106.28 17.1082L104.259 19.2685V23.589H99.8339V0.348633H104.259V14.2511L110.635 6.75978H116.071L109.416 14.3904L116.28 23.589Z" fill="#14A800"/>
<path d="M129.407 23.5889H124.947V10.6272H122.16V6.75958H124.947V5.85366C124.947 2.26481 127.247 0 130.627 0C132.23 0 133.937 0.418119 135.017 1.56794L133.345 4.18118C132.892 3.72822 132.299 3.48432 131.498 3.48432C130.278 3.48432 129.407 4.28571 129.407 5.85366V6.75958H132.822V10.6272H129.407V23.5889Z" fill="#333333"/>
<path d="M139.796 23.5889H135.371V6.75958H139.796V9.05923C140.98 7.56098 143.071 6.34146 145.162 6.34146V10.662C144.848 10.5923 144.43 10.5575 143.942 10.5575C142.479 10.5575 140.527 11.3937 139.796 12.4739V23.5889Z" fill="#333333"/>
<path d="M155.836 24.007C150.714 24.007 146.846 20.5575 146.846 15.1568C146.846 10.2787 150.435 6.34146 155.557 6.34146C160.575 6.34146 163.989 10.1045 163.989 15.6098V16.5854H151.48C151.759 18.7108 153.467 20.4878 156.324 20.4878C157.752 20.4878 159.738 19.8606 160.818 18.8153L162.77 21.6725C161.097 23.2056 158.449 24.007 155.836 24.007ZM159.703 13.5889C159.599 11.9861 158.484 9.86063 155.557 9.86063C152.805 9.86063 151.62 11.9164 151.411 13.5889H159.703Z" fill="#333333"/>
<path d="M175.095 24.007C169.973 24.007 166.105 20.5575 166.105 15.1568C166.105 10.2787 169.694 6.34146 174.816 6.34146C179.834 6.34146 183.248 10.1045 183.248 15.6098V16.5854H170.739C171.018 18.7108 172.726 20.4878 175.583 20.4878C177.011 20.4878 178.997 19.8606 180.077 18.8153L182.029 21.6725C180.356 23.2056 177.708 24.007 175.095 24.007ZM178.962 13.5889C178.858 11.9861 177.743 9.86063 174.816 9.86063C172.064 9.86063 170.879 11.9164 170.67 13.5889H178.962Z" fill="#333333"/>
<path d="M190.87 23.5889H186.445V0.348431H190.87V23.5889Z" fill="#333333"/>
<path d="M209.787 23.5889H205.362V21.8467C204.212 23.2056 202.226 24.007 200.031 24.007C197.348 24.007 194.177 22.1951 194.177 18.4321C194.177 14.4948 197.348 12.9965 200.031 12.9965C202.261 12.9965 204.247 13.7282 205.362 15.0523V12.7875C205.362 11.0801 203.899 9.96516 201.669 9.96516C199.857 9.96516 198.184 10.6272 196.756 11.9512L195.083 8.98955C197.139 7.1777 199.787 6.34146 202.435 6.34146C206.268 6.34146 209.787 7.87456 209.787 12.7178V23.5889ZM201.808 21.0105C203.237 21.0105 204.63 20.5226 205.362 19.547V17.4564C204.63 16.4808 203.237 15.993 201.808 15.993C200.066 15.993 198.637 16.899 198.637 18.5366C198.637 20.1045 200.066 21.0105 201.808 21.0105Z" fill="#333333"/>
<path d="M229.96 23.5889H225.535V13.4146C225.535 11.0801 224.316 10.2787 222.434 10.2787C220.692 10.2787 219.333 11.2544 218.601 12.2648V23.5889H214.176V6.75958H218.601V8.9547C219.681 7.6655 221.737 6.34146 224.49 6.34146C228.183 6.34146 229.96 8.43206 229.96 11.7073V23.5889Z" fill="#333333"/>
<path d="M242.194 24.007C237.002 24.007 233.274 20.3484 233.274 15.1568C233.274 10 237.002 6.34146 242.194 6.34146C245.643 6.34146 247.734 7.83972 248.849 9.37282L245.957 12.0906C245.155 10.9059 243.936 10.2787 242.403 10.2787C239.72 10.2787 237.838 12.23 237.838 15.1568C237.838 18.0836 239.72 20.0697 242.403 20.0697C243.936 20.0697 245.155 19.3728 245.957 18.2578L248.849 20.9408C247.734 22.5087 245.643 24.007 242.194 24.007Z" fill="#333333"/>
<path d="M259.651 24.007C254.529 24.007 250.661 20.5575 250.661 15.1568C250.661 10.2787 254.25 6.34146 259.372 6.34146C264.39 6.34146 267.804 10.1045 267.804 15.6098V16.5854H255.296C255.574 18.7108 257.282 20.4878 260.139 20.4878C261.567 20.4878 263.553 19.8606 264.633 18.8153L266.585 21.6725C264.912 23.2056 262.264 24.007 259.651 24.007ZM263.519 13.5889C263.414 11.9861 262.299 9.86063 259.372 9.86063C256.62 9.86063 255.435 11.9164 255.226 13.5889H263.519Z" fill="#333333"/>
</svg>
