<?xml version="1.0" standalone="no"?>
<!DOCTYPE svg PUBLIC "-//W3C//DTD SVG 20010904//EN"
 "http://www.w3.org/TR/2001/REC-SVG-20010904/DTD/svg10.dtd">
<svg version="1.0" xmlns="http://www.w3.org/2000/svg"
 width="192.000000pt" height="192.000000pt" viewBox="0 0 192.000000 192.000000"
 preserveAspectRatio="xMidYMid meet">
<metadata>
Created by potrace 1.11, written by Peter Selinger 2001-2013
</metadata>
<g transform="translate(0.000000,192.000000) scale(0.100000,-0.100000)"
fill="#000000" stroke="none">
<path d="M768 1900 c-114 -24 -241 -77 -341 -143 -135 -91 -134 -78 -22 -190
l96 -96 25 22 c70 62 209 127 304 142 19 3 49 8 66 11 l30 6 1 134 0 134 -37
-2 c-20 0 -75 -9 -122 -18z"/>
<path d="M995 1791 c0 -71 3 -132 6 -135 3 -3 23 -8 45 -11 111 -16 251 -74
336 -140 l43 -32 93 93 c52 51 91 98 87 103 -12 20 -122 100 -187 135 -58 32
-238 101 -238 91 0 -2 -14 0 -30 5 -17 5 -59 12 -93 15 l-62 7 0 -131z"/>
<path d="M197 1533 c-65 -92 -118 -193 -146 -283 -24 -75 -51 -235 -42 -247 6
-10 255 -12 265 -3 2 3 7 28 11 55 3 28 13 75 22 105 9 30 17 57 18 60 4 20
64 123 92 159 l34 45 -93 93 c-51 51 -95 93 -99 93 -3 0 -31 -35 -62 -77z"/>
<path d="M1566 1515 l-95 -97 22 -24 c57 -61 129 -213 143 -303 4 -20 8 -43 9
-51 2 -8 4 -22 4 -30 1 -13 23 -15 137 -15 l135 0 -6 60 c-19 178 -74 322
-180 471 -70 97 -60 98 -169 -11z"/>
<path d="M9 920 c-5 -3 -7 -15 -5 -25 2 -11 7 -47 10 -80 15 -129 91 -306 182
-425 68 -90 58 -91 164 15 l94 94 -38 48 c-51 65 -103 176 -122 259 -29 131
-11 117 -152 118 -68 1 -128 -1 -133 -4z"/>
<path d="M1649 915 c0 -5 -2 -19 -4 -30 -2 -11 -6 -36 -9 -55 -12 -86 -60
-196 -122 -281 -19 -26 -34 -51 -34 -56 0 -4 41 -49 91 -98 l90 -90 41 45
c109 122 193 323 213 513 6 50 4 57 -12 58 -109 6 -253 2 -254 -6z"/>
<path d="M403 355 l-98 -97 30 -24 c98 -81 218 -149 325 -183 74 -24 191 -47
235 -46 l30 0 2 133 c1 72 -2 132 -5 133 -149 18 -290 73 -379 145 l-42 35
-98 -96z"/>
<path d="M1370 408 c-92 -67 -224 -120 -332 -132 -18 -2 -35 -4 -38 -5 -3 0
-5 -62 -5 -136 l0 -135 55 5 c30 3 66 8 80 11 14 3 34 8 45 10 11 3 29 7 41 9
81 17 234 93 321 160 36 28 68 55 70 60 2 6 -39 52 -89 102 l-93 92 -55 -41z"/>
</g>
</svg>
